PathFileType	4	(X/Y/Z)	C:/Users/opensim2020/Desktop/walking_exp_matlab/subject06_walking14_straight_01.trc	
DataRate	CameraRate	NumFrames	NumMarkers	Units	OrigDataRate	OrigDataStartFrame	OrigNumFrames	
100.00	100.00	4	45	mm	100.00	860	203	
Frame#	Time	LFHD			RFHD			LBHD			RBHD			C7			T10			CLAV			STRN			RBAK			LSHO			LUPA			LELB			LFRM			LWRA			LWRB			LFIN			RSHO			RUPA			RELB			RFRM			RWRA			RWRB			RFIN			LASI			RASI			LPSI			RPSI			LTHI			LKNE			LTIB			LANK			LHEE			LTOE			RTHI			RKNE			RTIB			RANK			RHEE			RTOE			*39			*40			*41			*42			*43			*44			
		X1	Y1	Z1	X2	Y2	Z2	X3	Y3	Z3	X4	Y4	Z4	X5	Y5	Z5	X6	Y6	Z6	X7	Y7	Z7	X8	Y8	Z8	X9	Y9	Z9	X10	Y10	Z10	X11	Y11	Z11	X12	Y12	Z12	X13	Y13	Z13	X14	Y14	Z14	X15	Y15	Z15	X16	Y16	Z16	X17	Y17	Z17	X18	Y18	Z18	X19	Y19	Z19	X20	Y20	Z20	X21	Y21	Z21	X22	Y22	Z22	X23	Y23	Z23	X24	Y24	Z24	X25	Y25	Z25	X26	Y26	Z26	X27	Y27	Z27	X28	Y28	Z28	X29	Y29	Z29	X30	Y30	Z30	X31	Y31	Z31	X32	Y32	Z32	X33	Y33	Z33	X34	Y34	Z34	X35	Y35	Z35	X36	Y36	Z36	X37	Y37	Z37	X38	Y38	Z38	X39	Y39	Z39	X40	Y40	Z40	X41	Y41	Z41	X42	Y42	Z42	X43	Y43	Z43	X44	Y44	Z44	X45	Y45	Z45	

51	0.500	1352.33130	-791.89984	1645.32056	1483.27502	-793.12866	1630.93958	1349.25635	-926.59674	1592.67456	1478.39758	-925.69189	1583.71228	1399.17102	-931.38031	1435.04016	1401.89990	-975.87537	1106.63049	1404.01184	-822.63312	1354.29712	1393.45911	-789.50360	1178.01074	1468.72180	-1012.84088	1264.64587	1240.48047	-869.38507	1392.70422	1162.88953	-835.32031	1196.76855	1147.90625	-807.26868	1087.17456	1131.60645	-701.04382	982.08893	1176.24109	-580.94080	942.18439	1146.25635	-622.15100	893.36243	1146.11743	-536.58044	863.09174	1563.34619	-876.55695	1383.57471	1642.46582	-945.75323	1191.41333	1655.77625	-956.61652	1070.43652	1676.13525	-966.73779	950.91022	1656.01709	-933.43219	800.72833	1688.24487	-991.41870	815.13135	1695.75134	-972.81555	732.64941	1291.36084	-807.29095	938.14917	1512.80383	-797.55688	951.54657	1327.58508	-963.16327	972.07361	1496.76404	-951.25977	975.45361	1246.69641	-928.98285	634.96741	1270.81885	-972.34631	475.75925	1279.06775	-1094.85034	246.26776	1326.75244	-1160.39038	87.44254	1370.30798	-1205.96143	83.62054	1330.01282	-1025.60522	38.97202	1583.11780	-786.55243	625.96704	1552.49121	-742.91608	508.88986	1548.83142	-696.77454	254.90735	1506.30017	-633.41071	78.75751	1457.78882	-659.59576	47.64322	1508.84448	-472.87872	77.77734	1411.34460	-892.34436	1683.65796															 
52	0.510	1353.26733	-782.36646	1644.70581	1484.24658	-783.55048	1630.22986	1350.23621	-917.02808	1591.95337	1479.33643	-916.08508	1583.01868	1400.15991	-921.66364	1434.15894	1402.91333	-965.11487	1105.67188	1404.97058	-812.63165	1353.76904	1394.13794	-779.10919	1177.44226	1469.68530	-1002.47003	1263.55444	1241.40784	-859.67279	1391.90149	1164.31055	-825.58453	1195.85352	1149.52124	-797.07611	1086.42529	1133.32434	-690.41730	981.69812	1177.80505	-570.04584	942.75006	1148.27234	-610.99878	893.58826	1147.77856	-525.27429	863.85223	1564.30786	-866.56476	1382.84314	1643.33911	-936.03876	1190.80420	1656.62366	-946.76074	1069.76135	1676.77856	-957.59833	950.34381	1656.62524	-924.80219	800.07367	1688.82288	-982.49615	814.41187	1696.27112	-964.40387	732.08063	1291.93445	-796.72845	937.17859	1513.37646	-786.71100	950.36731	1328.53979	-952.05450	971.16522	1497.84338	-940.17004	974.66663	1246.76575	-920.31561	634.76886	1270.49292	-964.84509	475.80344	1277.74512	-1090.90430	248.10394	1324.90710	-1159.10193	90.16000	1368.15491	-1204.96741	87.13325	1329.68408	-1025.36365	38.90429	1583.47559	-776.16296	624.91699	1552.04602	-732.88434	508.19760	1548.55188	-687.09357	253.69763	1505.85815	-623.89838	77.36994	1457.24072	-649.60706	46.05849	1508.34106	-463.29791	77.12664	1412.30676	-882.77417	1682.94324															 
53	0.520	1354.23682	-772.81592	1644.16113	1485.27258	-773.87115	1629.69971	1351.25977	-907.23499	1591.38196	1480.45337	-906.40582	1582.35962	1401.25708	-911.86407	1433.36646	1403.93518	-954.08075	1104.81311	1406.03650	-802.47900	1353.23987	1395.02356	-768.32996	1177.07214	1470.78015	-991.87683	1262.47620	1242.40027	-850.03070	1391.34924	1165.84863	-815.81799	1195.11377	1151.29211	-786.95490	1085.85022	1135.09424	-680.06195	981.49054	1179.37256	-559.44910	942.95691	1150.13538	-600.46216	893.54065	1149.36865	-514.79749	864.22217	1565.30603	-856.39929	1382.32056	1644.29419	-926.09564	1190.36853	1657.44617	-937.01929	1069.24194	1677.56458	-947.97797	949.80078	1657.14722	-915.73303	799.56824	1689.40393	-973.48914	814.12073	1696.73840	-955.51044	731.60376	1292.73706	-785.91998	936.34955	1514.18176	-775.62433	949.36591	1329.59045	-941.04510	970.64893	1498.83765	-928.93811	974.00421	1247.10522	-911.32715	634.55469	1270.22217	-957.11237	475.84595	1276.25049	-1086.87170	250.11174	1323.14282	-1157.61292	93.07324	1365.97644	-1203.76416	90.92909	1329.35254	-1025.09961	38.88627	1583.33850	-765.72369	624.06506	1551.69983	-722.42584	507.86676	1548.26697	-678.37140	252.28476	1505.12646	-616.64117	75.38588	1456.44446	-642.46478	44.10922	1507.96509	-456.18353	75.69150	1413.35364	-873.17316	1682.38403															 
54	0.530	1355.25061	-763.14105	1643.69067	1486.28845	-764.10480	1629.28931	1352.43274	-897.69489	1590.90063	1481.59265	-896.60333	1581.90417	1402.49756	-901.96704	1432.53906	1405.08337	-942.85248	1103.99854	1407.03943	-792.26428	1352.90259	1396.10339	-757.26343	1176.86499	1471.93811	-981.08203	1261.53967	1243.54187	-840.36646	1390.89929	1167.43396	-805.98792	1194.59546	1153.15503	-776.93457	1085.31567	1136.95227	-669.93707	980.99152	1180.99414	-549.26227	942.83453	1152.03271	-590.26843	893.13025	1151.01941	-504.33749	864.10522	1566.44800	-846.11194	1381.91101	1645.41455	-915.90759	1190.07104	1658.49365	-926.50720	1068.69678	1678.33691	-938.10193	949.42542	1657.73486	-906.22552	799.20435	1690.13293	-963.75439	813.71155	1697.34509	-946.10895	731.23340	1293.62109	-774.95081	935.66919	1514.99438	-764.42224	948.45917	1330.64990	-929.80078	970.28375	1499.64465	-917.94025	973.55554	1247.51343	-902.05719	634.22400	1270.06348	-948.87006	475.82266	1275.29761	-1082.19446	252.12933	1321.44983	-1156.12195	96.31528	1363.90845	-1202.41614	94.99582	1328.96326	-1024.80603	38.80402	1583.21472	-754.99292	623.45428	1551.34314	-711.55121	507.81592	1547.46362	-670.31738	250.71350	1504.19141	-611.30334	73.09991	1455.74146	-637.59015	43.00761	1507.33691	-451.13577	72.95470	1414.42688	-863.45343	1681.90833															 
